<svg width="1874" height="1060" viewBox="0 0 1874 1060" fill="none" xmlns="http://www.w3.org/2000/svg">
<path fill-rule="evenodd" clip-rule="evenodd" d="M221 0H1651C1675.3 0 1695 19.6995 1695 44V1000C1695 1024.3 1675.3 1044 1651 1044H221C196.699 1044 177 1024.3 177 1000V44C177 19.6995 196.699 0 221 0Z" fill="#444444"/>
<path fill-rule="evenodd" clip-rule="evenodd" d="M221 4H1651C1673.09 4 1691 21.9086 1691 44V1000C1691 1022.09 1673.09 1040 1651 1040H221C198.909 1040 181 1022.09 181 1000V44C181 21.9086 198.909 4 221 4Z" fill="#141414"/>
<path d="M0 1021C0 1016.58 3.58172 1013 8 1013H1866C1870.42 1013 1874 1016.58 1874 1021V1043H0V1021Z" fill="#444444"/>
<path fill-rule="evenodd" clip-rule="evenodd" d="M4 1021C4 1018.79 5.79086 1017 8 1017H1866C1868.21 1017 1870 1018.79 1870 1021V1039H4V1021Z" fill="#141414"/>
<path fill-rule="evenodd" clip-rule="evenodd" d="M0 1043H1874L1866.06 1047.24C1851.58 1054.96 1835.41 1059 1819 1059H55.0001C38.586 1059 22.4242 1054.96 7.94118 1047.24L0 1043Z" fill="#444444"/>
<path fill-rule="evenodd" clip-rule="evenodd" d="M6 1043H1868L1858.87 1046.92C1846.42 1052.25 1833.02 1055 1819.47 1055H54.5257C40.983 1055 27.5815 1052.25 15.1338 1046.92L6 1043Z" fill="#141414"/>
<path d="M803 1013H1072V1014C1072 1025.05 1063.05 1034 1052 1034H823C811.954 1034 803 1025.05 803 1014V1013Z" fill="#444444"/>
<rect x="216" y="59" width="1440" height="900" fill="#212121"/>
<rect x="362.996" y="120.998" width="168" height="33" rx="16.5" fill="#3B82F6"/>
<rect x="712.996" y="404.998" width="446" height="33" rx="16.5" fill="#9F9F9F"/>
<rect x="735.996" y="453.998" width="399" height="33" rx="16.5" fill="#9F9F9F"/>
<rect x="780.996" y="540.998" width="310" height="72" rx="30" fill="#3B82F6"/>
<rect x="1207" y="129.998" width="81" height="16" rx="8" fill="#545454"/>
<rect x="1303" y="129.998" width="82" height="16" rx="8" fill="#545454"/>
<rect x="1400" y="129.998" width="81" height="16" rx="8" fill="#545454"/>
</svg>
